# xmcd CD database file
#
# Track frame offsets:
#	150
#	21853
#	43235
#
# Disc length: 884 seconds
#
# Revision: 0
# Processed by: cddbd v1.5PL3 Copyright (c) Steve Scherf et al.
# Submitted via: CDex 1.50
#
DISCID=20037203
DTITLE=day after tomorrow - moon gate
DYEAR=2003
DGENRE=Pop
TTITLE0=Starry Heavens
TTITLE1=ネバーランド
TTITLE2=These Days
EXTD=YEAR: 2003
EXTT0=
EXTT1=
EXTT2=
PLAYORDER=
